<svg width="334" height="296" viewBox="0 0 334 296" fill="none" xmlns="http://www.w3.org/2000/svg">
<rect x="159.887" y="159.611" width="33.3676" height="9" transform="rotate(-55 159.887 159.611)" fill="black" stroke="black"/>
<mask id="path-2-outside-1_2_13" maskUnits="userSpaceOnUse" x="100.248" y="100.386" width="157.948" height="149.844" fill="black">
<rect fill="white" x="100.248" y="100.386" width="157.948" height="149.844"/>
<path d="M154.599 102.918C157.001 105.276 160.648 108.269 165.539 111.896C170.417 115.447 176.391 119.698 183.463 124.649L218.141 148.931C223.671 152.803 228.195 157.052 231.712 161.677C235.185 166.27 237.482 171.189 238.606 176.434C239.761 181.634 239.636 187.12 238.23 192.891C236.778 198.63 233.91 204.559 229.625 210.679C225.276 216.889 220.638 221.681 215.709 225.053C210.767 228.348 205.64 230.365 200.326 231.103C195.013 231.841 189.589 231.387 184.054 229.741C178.505 228.017 172.965 225.219 167.435 221.347L132.757 197.065C126.048 192.367 120.085 188.293 114.867 184.843C109.636 181.315 105.502 178.825 102.464 177.374L112.225 163.435L173.421 206.285C177.864 209.396 182.145 211.819 186.266 213.556C190.341 215.262 194.283 216.096 198.091 216.061C201.854 215.993 205.463 214.94 208.918 212.9C212.327 210.829 215.603 207.549 218.745 203.061C221.824 198.664 223.738 194.532 224.487 190.665C225.19 186.766 224.914 183.06 223.658 179.547C222.39 175.956 220.257 172.537 217.261 169.291C214.219 166.013 210.477 162.818 206.035 159.708L144.839 116.858L154.599 102.918Z"/>
</mask>
<path d="M154.599 102.918C157.001 105.276 160.648 108.269 165.539 111.896C170.417 115.447 176.391 119.698 183.463 124.649L218.141 148.931C223.671 152.803 228.195 157.052 231.712 161.677C235.185 166.27 237.482 171.189 238.606 176.434C239.761 181.634 239.636 187.12 238.23 192.891C236.778 198.63 233.91 204.559 229.625 210.679C225.276 216.889 220.638 221.681 215.709 225.053C210.767 228.348 205.64 230.365 200.326 231.103C195.013 231.841 189.589 231.387 184.054 229.741C178.505 228.017 172.965 225.219 167.435 221.347L132.757 197.065C126.048 192.367 120.085 188.293 114.867 184.843C109.636 181.315 105.502 178.825 102.464 177.374L112.225 163.435L173.421 206.285C177.864 209.396 182.145 211.819 186.266 213.556C190.341 215.262 194.283 216.096 198.091 216.061C201.854 215.993 205.463 214.94 208.918 212.9C212.327 210.829 215.603 207.549 218.745 203.061C221.824 198.664 223.738 194.532 224.487 190.665C225.19 186.766 224.914 183.06 223.658 179.547C222.39 175.956 220.257 172.537 217.261 169.291C214.219 166.013 210.477 162.818 206.035 159.708L144.839 116.858L154.599 102.918Z" fill="black"/>
<path d="M154.599 102.918L155.299 102.205L154.457 101.378L153.78 102.345L154.599 102.918ZM165.539 111.896L164.944 112.7L164.951 112.705L165.539 111.896ZM231.712 161.677L232.51 161.074L232.508 161.071L231.712 161.677ZM238.606 176.434L237.628 176.644L237.63 176.651L238.606 176.434ZM238.23 192.891L239.199 193.136L239.201 193.128L238.23 192.891ZM215.709 225.053L216.264 225.885L216.274 225.878L215.709 225.053ZM184.054 229.741L183.757 230.696L183.768 230.699L184.054 229.741ZM114.867 184.843L114.308 185.672L114.315 185.677L114.867 184.843ZM102.464 177.374L101.645 176.801L100.968 177.768L102.033 178.276L102.464 177.374ZM112.225 163.435L112.798 162.616L111.979 162.042L111.406 162.861L112.225 163.435ZM186.266 213.556L185.877 214.478L185.88 214.479L186.266 213.556ZM198.091 216.061L198.101 217.061L198.109 217.06L198.091 216.061ZM208.918 212.9L209.426 213.761L209.437 213.755L208.918 212.9ZM224.487 190.665L225.468 190.855L225.471 190.843L224.487 190.665ZM223.658 179.547L222.716 179.88L222.717 179.883L223.658 179.547ZM217.261 169.291L217.996 168.613L217.994 168.611L217.261 169.291ZM144.839 116.858L144.019 116.284L143.446 117.103L144.265 117.677L144.839 116.858ZM153.898 103.632C156.35 106.038 160.04 109.063 164.944 112.7L166.135 111.093C161.256 107.475 157.653 104.514 155.299 102.205L153.898 103.632ZM164.951 112.705C169.835 116.26 175.815 120.515 182.889 125.468L184.037 123.83C176.968 118.881 170.999 114.634 166.128 111.088L164.951 112.705ZM182.889 125.468L217.567 149.75L218.715 148.112L184.037 123.83L182.889 125.468ZM217.567 149.75C223.026 153.573 227.471 157.752 230.917 162.282L232.508 161.071C228.919 156.352 224.316 152.034 218.715 148.112L217.567 149.75ZM230.915 162.28C234.305 166.765 236.537 171.551 237.628 176.644L239.584 176.225C238.427 170.826 236.064 165.774 232.51 161.074L230.915 162.28ZM237.63 176.651C238.748 181.685 238.632 187.015 237.258 192.654L239.201 193.128C240.639 187.225 240.774 181.583 239.582 176.217L237.63 176.651ZM237.26 192.646C235.845 198.241 233.039 204.06 228.806 210.106L230.444 211.253C234.781 205.059 237.711 199.019 239.199 193.136L237.26 192.646ZM228.806 210.106C224.508 216.243 219.951 220.939 215.145 224.228L216.274 225.878C221.325 222.423 226.044 217.536 230.444 211.253L228.806 210.106ZM215.155 224.221C210.324 227.442 205.338 229.397 200.189 230.113L200.464 232.094C205.942 231.332 211.21 229.255 216.264 225.885L215.155 224.221ZM200.189 230.113C195.028 230.83 189.747 230.391 184.339 228.782L183.768 230.699C189.43 232.383 194.998 232.853 200.464 232.094L200.189 230.113ZM184.35 228.786C178.915 227.097 173.467 224.35 168.008 220.528L166.861 222.166C172.463 226.088 178.095 228.937 183.757 230.696L184.35 228.786ZM168.008 220.528L133.33 196.246L132.183 197.884L166.861 222.166L168.008 220.528ZM133.33 196.246C126.616 191.545 120.646 187.465 115.419 184.008L114.315 185.677C119.524 189.121 125.48 193.19 132.183 197.884L133.33 196.246ZM115.426 184.013C110.183 180.477 106 177.955 102.896 176.472L102.033 178.276C105.003 179.695 109.089 182.152 114.308 185.672L115.426 184.013ZM103.284 177.948L113.044 164.009L111.406 162.861L101.645 176.801L103.284 177.948ZM111.651 164.254L172.848 207.104L173.995 205.466L112.798 162.616L111.651 164.254ZM172.848 207.104C177.336 210.247 181.68 212.708 185.877 214.478L186.654 212.635C182.611 210.931 178.391 208.544 173.995 205.466L172.848 207.104ZM185.88 214.479C190.061 216.228 194.137 217.098 198.101 217.06L198.082 215.061C194.429 215.095 190.622 214.295 186.652 212.634L185.88 214.479ZM198.109 217.06C202.056 216.99 205.833 215.882 209.426 213.761L208.409 212.039C205.093 213.997 201.652 214.997 198.073 215.061L198.109 217.06ZM209.437 213.755C213 211.59 216.371 208.196 219.565 203.635L217.926 202.488C214.836 206.902 211.654 210.067 208.398 212.045L209.437 213.755ZM219.565 203.635C222.696 199.162 224.685 194.9 225.468 190.855L223.505 190.475C222.791 194.164 220.952 198.166 217.926 202.488L219.565 203.635ZM225.471 190.843C226.203 186.783 225.918 182.899 224.6 179.21L222.717 179.883C223.91 183.222 224.177 186.75 223.502 190.488L225.471 190.843ZM224.601 179.213C223.281 175.476 221.069 171.943 217.996 168.613L216.526 169.969C219.445 173.132 221.499 176.436 222.716 179.88L224.601 179.213ZM217.994 168.611C214.895 165.271 211.097 162.032 206.609 158.889L205.461 160.527C209.858 163.605 213.543 166.754 216.528 169.971L217.994 168.611ZM206.609 158.889L145.412 116.039L144.265 117.677L205.461 160.527L206.609 158.889ZM145.658 117.431L155.418 103.492L153.78 102.345L144.019 116.284L145.658 117.431Z" fill="black" mask="url(#path-2-outside-1_2_13)"/>
<mask id="path-4-outside-2_2_13" maskUnits="userSpaceOnUse" x="76.5355" y="45.6112" width="157.948" height="149.845" fill="black">
<rect fill="white" x="76.5355" y="45.6112" width="157.948" height="149.845"/>
<path d="M180.133 192.923C177.731 190.565 174.084 187.573 169.193 183.945C164.315 180.395 158.341 176.144 151.269 171.192L116.591 146.911C111.061 143.038 106.537 138.79 103.02 134.165C99.5476 129.572 97.2498 124.653 96.1262 119.407C94.9709 114.207 95.0963 108.722 96.5025 102.951C97.954 97.2116 100.822 91.2822 105.107 85.1626C109.456 78.9523 114.094 74.161 119.023 70.7888C123.965 67.4936 129.092 65.4769 134.406 64.7387C139.719 64.0004 145.143 64.4545 150.679 66.101C156.227 67.8245 161.767 70.6224 167.297 74.4948L201.975 98.7766C208.684 103.474 214.647 107.548 219.865 110.999C225.096 114.527 229.23 117.016 232.268 118.468L222.507 132.407L161.311 89.5566C156.868 86.446 152.587 84.0222 148.466 82.2853C144.391 80.5801 140.449 79.7454 136.641 79.7812C132.878 79.8486 129.269 80.9022 125.814 82.9418C122.405 85.0131 119.129 88.2926 115.987 92.7804C112.908 97.1775 110.994 101.309 110.246 105.176C109.542 109.075 109.818 112.781 111.074 116.295C112.342 119.886 114.475 123.304 117.471 126.551C120.513 129.829 124.255 133.023 128.697 136.134L189.894 178.984L180.133 192.923Z"/>
</mask>
<path d="M180.133 192.923C177.731 190.565 174.084 187.573 169.193 183.945C164.315 180.395 158.341 176.144 151.269 171.192L116.591 146.911C111.061 143.038 106.537 138.79 103.02 134.165C99.5476 129.572 97.2498 124.653 96.1262 119.407C94.9709 114.207 95.0963 108.722 96.5025 102.951C97.954 97.2116 100.822 91.2822 105.107 85.1626C109.456 78.9523 114.094 74.161 119.023 70.7888C123.965 67.4936 129.092 65.4769 134.406 64.7387C139.719 64.0004 145.143 64.4545 150.679 66.101C156.227 67.8245 161.767 70.6224 167.297 74.4948L201.975 98.7766C208.684 103.474 214.647 107.548 219.865 110.999C225.096 114.527 229.23 117.016 232.268 118.468L222.507 132.407L161.311 89.5566C156.868 86.446 152.587 84.0222 148.466 82.2853C144.391 80.5801 140.449 79.7454 136.641 79.7812C132.878 79.8486 129.269 80.9022 125.814 82.9418C122.405 85.0131 119.129 88.2926 115.987 92.7804C112.908 97.1775 110.994 101.309 110.246 105.176C109.542 109.075 109.818 112.781 111.074 116.295C112.342 119.886 114.475 123.304 117.471 126.551C120.513 129.829 124.255 133.023 128.697 136.134L189.894 178.984L180.133 192.923Z" fill="black"/>
<path d="M180.133 192.923L179.433 193.637L180.275 194.464L180.952 193.497L180.133 192.923ZM169.193 183.945L169.789 183.142L169.781 183.137L169.193 183.945ZM103.02 134.165L102.222 134.768L102.224 134.77L103.02 134.165ZM96.1262 119.407L97.104 119.198L97.1024 119.191L96.1262 119.407ZM96.5025 102.951L95.533 102.706L95.5309 102.714L96.5025 102.951ZM119.023 70.7888L118.468 69.9567L118.458 69.9635L119.023 70.7888ZM150.679 66.101L150.975 65.1459L150.964 65.1425L150.679 66.101ZM219.865 110.999L220.424 110.17L220.417 110.165L219.865 110.999ZM232.268 118.468L233.087 119.041L233.764 118.074L232.699 117.565L232.268 118.468ZM222.507 132.407L221.934 133.226L222.753 133.799L223.326 132.98L222.507 132.407ZM148.466 82.2853L148.855 81.3638L148.852 81.3628L148.466 82.2853ZM136.641 79.7812L136.632 78.7812L136.623 78.7813L136.641 79.7812ZM125.814 82.9418L125.306 82.0806L125.295 82.0871L125.814 82.9418ZM110.246 105.176L109.264 104.986L109.261 104.999L110.246 105.176ZM111.074 116.295L112.016 115.962L112.015 115.959L111.074 116.295ZM117.471 126.551L116.736 127.229L116.738 127.231L117.471 126.551ZM189.894 178.984L190.713 179.558L191.286 178.738L190.467 178.165L189.894 178.984ZM180.834 192.21C178.382 189.804 174.692 186.779 169.789 183.142L168.597 184.749C173.476 188.367 177.079 191.327 179.433 193.637L180.834 192.21ZM169.781 183.137C164.897 179.582 158.917 175.327 151.843 170.373L150.696 172.012C157.764 176.961 163.733 181.208 168.604 184.754L169.781 183.137ZM151.843 170.373L117.165 146.091L116.018 147.73L150.696 172.012L151.843 170.373ZM117.165 146.091C111.706 142.269 107.261 138.09 103.816 133.56L102.224 134.77C105.813 139.489 110.416 143.807 116.018 147.73L117.165 146.091ZM103.817 133.562C100.427 129.077 98.1948 124.29 97.104 119.198L95.1484 119.617C96.3047 125.015 98.6684 130.067 102.222 134.768L103.817 133.562ZM97.1024 119.191C95.984 114.157 96.0999 108.827 97.4741 103.188L95.5309 102.714C94.0927 108.617 93.9578 114.258 95.15 119.624L97.1024 119.191ZM97.472 103.196C98.8871 97.6008 101.694 91.7813 105.926 85.7362L104.288 84.589C99.951 90.7831 97.021 96.8225 95.533 102.706L97.472 103.196ZM105.926 85.7362C110.224 79.599 114.781 74.9028 119.587 71.614L118.458 69.9635C113.408 73.4192 108.688 78.3056 104.288 84.589L105.926 85.7362ZM119.577 71.6208C124.408 68.4001 129.395 66.4445 134.543 65.7291L134.268 63.7482C128.79 64.5093 123.522 66.5871 118.468 69.9567L119.577 71.6208ZM134.543 65.7291C139.705 65.0121 144.985 65.4506 150.393 67.0595L150.964 65.1425C145.302 63.4585 139.734 62.9888 134.268 63.7482L134.543 65.7291ZM150.382 67.056C155.817 68.7443 161.265 71.4915 166.724 75.314L167.871 73.6757C162.269 69.7533 156.637 66.9047 150.975 65.146L150.382 67.056ZM166.724 75.314L201.402 99.5957L202.549 97.9574L167.871 73.6757L166.724 75.314ZM201.402 99.5957C208.116 104.297 214.087 108.376 219.313 111.833L220.417 110.165C215.208 106.72 209.253 102.651 202.549 97.9574L201.402 99.5957ZM219.306 111.828C224.549 115.364 228.732 117.887 231.837 119.37L232.699 117.565C229.729 116.146 225.643 113.69 220.424 110.17L219.306 111.828ZM231.448 117.894L221.688 131.833L223.326 132.98L233.087 119.041L231.448 117.894ZM223.081 131.588L161.884 88.7374L160.737 90.3757L221.934 133.226L223.081 131.588ZM161.884 88.7374C157.396 85.5945 153.053 83.1333 148.855 81.3638L148.078 83.2068C152.121 84.9112 156.341 87.2974 160.737 90.3757L161.884 88.7374ZM148.852 81.3628C144.671 79.6136 140.595 78.744 136.631 78.7812L136.65 80.7811C140.303 80.7468 144.11 81.5467 148.08 83.2078L148.852 81.3628ZM136.623 78.7813C132.676 78.8521 128.899 79.9592 125.306 82.0806L126.323 83.8029C129.639 81.8451 133.08 80.8452 136.659 80.781L136.623 78.7813ZM125.295 82.0871C121.732 84.2519 118.361 87.6454 115.168 92.2068L116.806 93.354C119.897 88.9399 123.078 85.7743 126.334 83.7964L125.295 82.0871ZM115.168 92.2068C112.036 96.6796 110.047 100.941 109.264 104.986L111.227 105.367C111.941 101.678 113.78 97.6753 116.806 93.354L115.168 92.2068ZM109.261 104.999C108.529 109.059 108.814 112.943 110.132 116.631L112.015 115.959C110.822 112.62 110.555 109.092 111.23 105.354L109.261 104.999ZM110.131 116.628C111.451 120.366 113.663 123.899 116.736 127.229L118.206 125.872C115.287 122.71 113.233 119.406 112.016 115.962L110.131 116.628ZM116.738 127.231C119.837 130.57 123.635 133.81 128.124 136.953L129.271 135.315C124.874 132.236 121.189 129.087 118.204 125.871L116.738 127.231ZM128.124 136.953L189.32 179.803L190.467 178.165L129.271 135.315L128.124 136.953ZM189.074 178.41L179.314 192.35L180.952 193.497L190.713 179.558L189.074 178.41Z" fill="black" mask="url(#path-4-outside-2_2_13)"/>
</svg>
